<svg width="15" height="16" viewBox="0 0 15 16" fill="none" xmlns="http://www.w3.org/2000/svg">
<path d="M14.6963 13.2315L11.5261 10.0608C12.2966 8.98898 12.7202 7.70825 12.7202 6.36011C12.7202 4.66197 12.0591 3.06494 10.8567 1.86354C9.65683 0.662663 8.05877 0 6.35959 0C4.66093 0 3.06339 0.661107 1.86251 1.86354C0.661626 3.06391 0 4.66145 0 6.36011C0 8.05877 0.661107 9.65579 1.86251 10.8577C3.06339 12.0586 4.66042 12.7213 6.35959 12.7213C7.70721 12.7213 8.98691 12.2997 10.0597 11.5271L13.2299 14.6978C13.4332 14.9006 13.6976 15.0017 13.9631 15.0017C14.2291 15.0017 14.4941 14.9006 14.6963 14.6978C15.1012 14.2924 15.1012 13.6364 14.6963 13.2315ZM3.32939 9.39083C2.51947 8.58091 2.07406 7.50395 2.07406 6.35959C2.07406 5.21523 2.51947 4.13931 3.32939 3.32939C4.13879 2.51947 5.21471 2.07354 6.35959 2.07354C7.50447 2.07354 8.58091 2.51947 9.39031 3.32939C10.2002 4.13931 10.6462 5.21575 10.6462 6.36011C10.6462 7.50447 10.2008 8.58091 9.39031 9.39135C8.58039 10.2013 7.50499 10.6462 6.35959 10.6462C5.21419 10.6462 4.13775 10.2002 3.32939 9.39083Z" fill="#686868"/>
</svg>
