<svg width="54" height="54" viewBox="0 0 54 54" fill="none" xmlns="http://www.w3.org/2000/svg">
<path d="M27 1C41.359 1 53 12.641 53 27C53 41.359 41.359 53 27 53C12.641 53 1 41.359 1 27C1 12.641 12.641 1 27 1Z" fill="#00B0A2"/>
<path d="M27 54C12.112 54 0 41.888 0 27C0 12.112 12.112 0 27 0C41.888 0 54 12.112 54 27C54 41.888 41.888 54 27 54ZM27 2C13.215 2 2 13.215 2 27C2 40.785 13.215 52 27 52C40.785 52 52 40.785 52 27C52 13.215 40.785 2 27 2Z" fill="#00B0A2"/>
<path d="M31.706 40C31.45 40 31.194 39.902 30.999 39.707L19.501 28.209C18.834 27.542 18.834 26.458 19.501 25.791L30.999 14.293C31.39 13.902 32.022 13.902 32.413 14.293C32.804 14.684 32.804 15.316 32.413 15.707L21.12 27L32.413 38.293C32.804 38.684 32.804 39.316 32.413 39.707C32.218 39.902 31.962 40 31.706 40Z" fill="white"/>
</svg>
