<svg width="7" height="7" viewBox="0 0 7 7" fill="none" xmlns="http://www.w3.org/2000/svg">
<g clip-path="url(#clip0)">
<path d="M3.88647 3.50074L6.91966 0.467534C7.02645 0.360743 7.02645 0.187603 6.91966 0.0808255C6.81287 -0.0259516 6.63973 -0.0259653 6.53295 0.0808255L3.49974 3.11403L0.46655 0.0808255C0.359759 -0.0259653 0.186618 -0.0259653 0.0798413 0.0808255C-0.0269358 0.187616 -0.0269495 0.360757 0.0798413 0.467534L3.11304 3.50073L0.0798413 6.53394C-0.0269495 6.64073 -0.0269495 6.81387 0.0798413 6.92065C0.13323 6.97404 0.203216 7.00072 0.273202 7.00072C0.343188 7.00072 0.413161 6.97404 0.466563 6.92065L3.49974 3.88745L6.53294 6.92065C6.58633 6.97404 6.65631 7.00072 6.7263 7.00072C6.79629 7.00072 6.86626 6.97404 6.91966 6.92065C7.02645 6.81386 7.02645 6.64072 6.91966 6.53394L3.88647 3.50074Z" fill="#FF0000"/>
</g>
<defs>
<clipPath id="clip0">
<rect width="7" height="7" fill="white"/>
</clipPath>
</defs>
</svg>
