<svg width="21" height="23" viewBox="0 0 21 23" fill="none" xmlns="http://www.w3.org/2000/svg">
<path d="M8.11065 20.9687H3.50731C2.54034 20.9687 1.75365 20.182 1.75365 19.215V12.0251C1.75365 11.0581 2.54034 10.2714 3.50731 10.2714H16.1336C17.1006 10.2714 17.8873 11.0581 17.8873 12.0251V12.9457C17.8873 13.43 18.2798 13.8225 18.7641 13.8225C19.2484 13.8225 19.6409 13.43 19.6409 12.9457V12.0251C19.6409 10.0911 18.0675 8.51775 16.1336 8.51775H15.0798V5.42544C15.0798 2.58579 12.7197 0.275574 9.81884 0.275574C6.91794 0.275574 4.55788 2.58579 4.55788 5.42544V8.51775H3.50731C1.57338 8.51775 0 10.0911 0 12.0251V19.215C0 21.149 1.57338 22.7223 3.50731 22.7223H8.11065C8.59492 22.7223 8.98747 22.3298 8.98747 21.8455C8.98747 21.3612 8.59492 20.9687 8.11065 20.9687ZM6.31153 5.42544C6.31153 3.55276 7.88491 2.02923 9.81884 2.02923C11.7528 2.02923 13.3261 3.55276 13.3261 5.42544V8.51775H6.31153V5.42544Z" fill="white"/>
<path d="M8.19833 16.3215C8.68259 16.3215 9.07516 15.9289 9.07516 15.4447C9.07516 14.9604 8.68259 14.5679 8.19833 14.5679C7.71407 14.5679 7.3215 14.9604 7.3215 15.4447C7.3215 15.9289 7.71407 16.3215 8.19833 16.3215Z" fill="white"/>
<path d="M20.8406 17.9657C20.8098 17.9218 20.704 17.7721 20.6383 17.6895C20.3447 17.3203 19.6573 16.4555 18.7008 15.6922C17.4745 14.7134 16.2125 14.2171 14.9499 14.2171C13.6873 14.2171 12.4253 14.7134 11.199 15.6921C10.2424 16.4555 9.555 17.3202 9.26179 17.6891C9.19589 17.7719 9.09006 17.9217 9.0592 17.9656C8.8467 18.268 8.84665 18.6713 9.05911 18.9737C9.09002 19.0177 9.19585 19.1675 9.26153 19.25C9.555 19.6192 10.2424 20.4839 11.199 21.2473C12.4253 22.2261 13.6873 22.7223 14.9499 22.7223C16.2125 22.7223 17.4745 22.2261 18.7008 21.2474C19.6573 20.484 20.3448 19.6193 20.6384 19.2499C20.7041 19.1672 20.8098 19.0177 20.8406 18.9738C21.0531 18.6714 21.0531 18.2681 20.8406 17.9657ZM14.9499 20.9687C13.6476 20.9687 12.2825 20.1285 10.8883 18.4697C12.2825 16.811 13.6475 15.9708 14.9499 15.9708C16.2521 15.9708 17.6173 16.8112 19.0115 18.4698C17.6173 20.1285 16.2522 20.9687 14.9499 20.9687Z" fill="white"/>
<path d="M4.91023 16.3215C5.39449 16.3215 5.78706 15.9289 5.78706 15.4447C5.78706 14.9604 5.39449 14.5679 4.91023 14.5679C4.42597 14.5679 4.0334 14.9604 4.0334 15.4447C4.0334 15.9289 4.42597 16.3215 4.91023 16.3215Z" fill="white"/>
<path d="M14.9937 20.1357C15.9138 20.1357 16.6597 19.3898 16.6597 18.4697C16.6597 17.5496 15.9138 16.8038 14.9937 16.8038C14.0737 16.8038 13.3278 17.5496 13.3278 18.4697C13.3278 19.3898 14.0737 20.1357 14.9937 20.1357Z" fill="white"/>
</svg>
